<svg width="12" height="14" viewBox="0 0 12 14" fill="none" xmlns="http://www.w3.org/2000/svg">
<path d="M11.0371 8.66429C10.3024 8.66429 9.58106 8.53789 8.89747 8.28939C8.5625 8.16372 8.15072 8.27901 7.94628 8.50998L6.597 9.6304C5.03222 8.71159 4.06834 7.65167 3.24447 5.94333L4.23306 4.4978C4.48991 4.21565 4.58203 3.80349 4.47166 3.41677C4.24478 2.66087 4.12953 1.86773 4.12953 1.05923C4.12956 0.475166 3.69759 0 3.16666 0H0.962906C0.431969 0 0 0.475166 0 1.0592C0 7.75373 4.95119 13.2 11.0371 13.2C11.5681 13.2 12 12.7248 12 12.1408V9.72345C12 9.13945 11.568 8.66429 11.0371 8.66429Z" fill="#718096"/>
</svg>
