<svg width="65" height="65" viewBox="0 0 65 65" fill="none" xmlns="http://www.w3.org/2000/svg">
<path d="M63.2745 22.305L42.6921 1.72288C41.581 0.611914 40.0994 0 38.5198 0C36.9404 0 35.4586 0.61166 34.3475 1.72263L1.72283 34.3474C0.611865 35.4585 -4.95911e-05 36.9401 -4.95911e-05 38.5196C-4.95911e-05 40.0992 0.611865 41.581 1.72283 42.6918L4.26088 45.2299C4.26113 45.23 4.26126 45.2302 4.26151 45.2305C4.26177 45.2307 4.26202 45.231 4.26228 45.2313L21.3197 62.2887H18.9579C18.2101 62.2887 17.6038 62.8949 17.6038 63.6428C17.6038 64.3905 18.2101 64.9968 18.9579 64.9968H26.4721C26.4739 64.9968 26.4755 64.997 26.4773 64.997C26.4791 64.997 26.4807 64.9968 26.4825 64.9968L46.04 64.9971C46.7878 64.9971 47.3941 64.3908 47.3941 63.643C47.3941 62.8951 46.7878 62.2889 46.04 62.2889L31.6354 62.2887L63.2747 30.6494C65.5751 28.3488 65.5751 24.6054 63.2745 22.305ZM61.3596 28.7345L28.7347 61.3594C28.1363 61.9576 27.3365 62.2874 26.4823 62.2887H26.472C25.618 62.2873 24.8184 61.9576 24.2203 61.3594L7.13408 44.273L38.4655 12.9413C38.9942 12.4126 38.9942 11.5551 38.4655 11.0264C37.9366 10.4976 37.0794 10.4976 36.5504 11.0265L5.21899 42.3582L3.63767 40.7768C3.03832 40.1775 2.70824 39.3759 2.70824 38.5197C2.70824 37.6636 3.03832 36.8619 3.63779 36.2624L36.2625 3.63772C36.8619 3.03837 37.6637 2.70829 38.5198 2.70829C39.376 2.70829 40.1777 3.03837 40.7772 3.63784L48.1028 10.9633L16.771 42.2953C16.2422 42.824 16.2422 43.6814 16.771 44.2104C17.0354 44.4747 17.382 44.6069 17.7285 44.6069C18.0749 44.6069 18.4215 44.4746 18.6859 44.2103L50.0177 12.8784L61.3596 24.2199C62.6041 25.4645 62.604 27.4898 61.3596 28.7345Z" fill="#DEB89E"/>
</svg>
