<svg width="90" height="90" viewBox="0 0 90 90" fill="none" xmlns="http://www.w3.org/2000/svg">
<path d="M84.4543 7.04544H5.54572C2.48766 7.04544 0 9.5331 0 12.591V66.1362C0 69.1941 2.48766 71.6818 5.54572 71.6818H32.2339L31.1544 80.3178H26.6818C25.9536 80.3178 25.3635 80.908 25.3635 81.6361C25.3635 82.3642 25.9536 82.9545 26.6818 82.9545H63.3182C64.0464 82.9545 64.6365 82.3642 64.6365 81.6361C64.6365 80.908 64.0464 80.3178 63.3182 80.3178H58.8458L57.7661 71.6818H84.4543C87.5122 71.6818 90 69.1941 90 66.1362V12.591C90 9.5331 87.5123 7.04544 84.4543 7.04544ZM33.8117 80.3178L34.8913 71.6818H39.7434L40.2195 73.5855C40.7689 75.7833 42.7349 77.318 45.0002 77.318C47.2655 77.318 49.2314 75.7833 49.7809 73.5855L50.2569 71.6818H55.109L56.1883 80.3178H33.8117ZM42.4612 71.6818H47.5386L47.2226 72.946C46.9672 73.9678 46.0533 74.6813 44.9998 74.6813C43.9464 74.6813 43.0327 73.9677 42.7771 72.946L42.4612 71.6818ZM87.3633 66.1362C87.3633 67.7403 86.0583 69.0451 84.4543 69.0451H5.54572C3.94172 69.0451 2.63672 67.7403 2.63672 66.1362V12.591C2.63672 10.987 3.94172 9.68216 5.54572 9.68216H84.4543C86.0583 9.68216 87.3633 10.987 87.3633 12.591V66.1362Z" fill="#DEB89E"/>
<path d="M74.5908 12.6819H6.95474C6.22648 12.6819 5.63638 13.272 5.63638 14.0003V64.7273C5.63638 65.4555 6.22648 66.0456 6.95474 66.0456H9.77304C10.5013 66.0456 11.0914 65.4555 11.0914 64.7273C11.0916 63.9992 10.5013 63.4089 9.77322 63.4089H8.27328V15.3187H74.5908C75.3191 15.3187 75.9092 14.7284 75.9092 14.0003C75.9092 13.272 75.3191 12.6819 74.5908 12.6819Z" fill="#DEB89E"/>
<path d="M83.0454 12.6819H80.2272C79.4989 12.6819 78.9088 13.272 78.9088 14.0003C78.9088 14.7284 79.4989 15.3187 80.2272 15.3187H81.7271V63.4089H15.4094C14.6811 63.4089 14.091 63.9992 14.091 64.7273C14.091 65.4555 14.6811 66.0456 15.4094 66.0456H83.0453C83.7735 66.0456 84.3636 65.4555 84.3636 64.7273V14.0003C84.3638 13.272 83.7735 12.6819 83.0454 12.6819Z" fill="#DEB89E"/>
<path d="M62.9473 27.2785C62.7104 26.9756 62.353 26.7914 61.9691 26.774L30.9694 25.3647C30.9451 25.3637 30.9214 25.3631 30.8969 25.3635C30.7134 24.7611 30.3257 24.2387 29.8008 23.8885L26.0044 21.3576C25.3987 20.9539 24.5801 21.1175 24.1763 21.7234C23.7725 22.3293 23.9362 23.1478 24.5419 23.5515L28.3381 26.0821C28.356 26.094 28.3692 26.1122 28.3752 26.1329L33.2108 43.0573C33.3616 43.585 33.6098 44.0592 33.9285 44.4688L32.1592 48.0073C31.7333 48.8589 31.778 49.8509 32.2786 50.6609C32.4602 50.9546 32.6904 51.2047 32.955 51.4051C32.6087 52.0096 32.4095 52.7089 32.4095 53.4542C32.4095 55.7352 34.2653 57.5907 36.546 57.5907C38.8268 57.5907 40.6825 55.735 40.6825 53.4542C40.6825 52.9253 40.5816 52.4197 40.3999 51.9545H52.4193C52.2375 52.4197 52.1366 52.9253 52.1366 53.4542C52.1366 55.7352 53.9923 57.5907 56.2731 57.5907C58.5539 57.5907 60.4096 55.735 60.4096 53.4542C60.4096 52.7926 60.2526 52.1673 59.9752 51.6122C60.2414 51.371 60.4096 51.0237 60.4096 50.6361C60.4096 49.908 59.8195 49.3177 59.0912 49.3177H34.5982C34.5794 49.3177 34.5476 49.3177 34.521 49.2747C34.4945 49.2318 34.5087 49.2035 34.5172 49.1864L36.147 45.9269C36.4787 46.0122 36.8243 46.0582 37.178 46.0582C37.3409 46.0582 37.5054 46.0486 37.671 46.0292L56.1959 43.8499C58.5885 43.5683 60.5135 41.7922 60.986 39.4297L63.2019 28.3495C63.2773 27.9724 63.1843 27.5813 62.9473 27.2785ZM56.2727 51.9548C57.0998 51.9548 57.7725 52.6277 57.7725 53.4546C57.7725 54.2816 57.0998 54.9543 56.2727 54.9543C55.4457 54.9543 54.773 54.2816 54.773 53.4546C54.773 52.6275 55.4457 51.9548 56.2727 51.9548ZM36.5457 51.9548C37.3727 51.9548 38.0454 52.6275 38.0454 53.4546C38.0454 54.2816 37.3727 54.9543 36.5457 54.9543C35.7186 54.9543 35.0459 54.2816 35.0459 53.4546C35.0459 52.6275 35.7186 51.9548 36.5457 51.9548ZM33.3127 33.8181L31.6605 28.0357L36.9313 28.2753L37.8452 33.8181H33.3127ZM37.3631 43.4106C36.6279 43.4971 35.9485 43.0438 35.7457 42.3331L34.0661 36.4548H38.2799L39.3875 43.1724L37.3631 43.4106ZM45.0909 42.5015L42.0091 42.8641L40.9525 36.4549H45.0909V42.5015ZM45.0909 33.8181H40.5176L39.624 28.3978L45.0909 28.6464V33.8181ZM51.7675 41.7159L47.7277 42.1912V36.4548H52.2437L51.7675 41.7159ZM52.4824 33.8181H47.7277V28.7661L52.9183 29.002L52.4824 33.8181ZM58.4002 38.9129C58.1524 40.1518 57.1427 41.0836 55.8878 41.2313L54.4434 41.4013L54.8911 36.4549H58.8917L58.4002 38.9129ZM59.4192 33.8181H55.13L55.555 29.1219L60.3152 29.3383L59.4192 33.8181Z" fill="#DEB89E"/>
</svg>
