<svg width="15" height="31" viewBox="0 0 15 31" fill="none" xmlns="http://www.w3.org/2000/svg">
<path d="M13.6637 0H10.4346C7.96415 0 6.18967 0.58641 5.11125 1.75883C4.03249 2.93165 3.49359 4.6589 3.49359 6.94133V9.11693C3.49359 9.69189 3.0276 10.1579 2.45265 10.1579H1.33675C0.761793 10.1579 0.295807 10.6239 0.295807 11.1988V14.459C0.295807 15.034 0.761793 15.5 1.33675 15.5H2.45265C3.0276 15.5 3.49359 15.966 3.49359 16.5409V29.959C3.49359 30.534 3.95958 30.9999 4.53453 30.9999H8.86692C9.44188 30.9999 9.90787 30.5339 9.90787 29.959V16.541C9.90787 15.966 10.3739 15.5 10.9488 15.5H13.1368C13.7119 15.5 14.2268 15.0365 14.2871 14.465L14.6327 11.1929C14.6931 10.6211 14.276 10.1579 13.701 10.1579H10.9485C10.3735 10.1579 9.90753 9.69189 9.90753 9.11693V7.4868C9.90753 7.08568 9.92629 6.77515 9.96405 6.55551C10.0015 6.33621 10.0862 6.12002 10.2181 5.90662C10.3495 5.69361 10.5629 5.54614 10.8575 5.46456C11.1521 5.38303 11.5442 5.34209 12.0331 5.34209H13.6632C14.2382 5.34209 14.7041 4.87611 14.7041 4.30115V1.04094C14.7045 0.465987 14.2386 0 13.6637 0Z" fill="#718096"/>
</svg>
