<svg width="80" height="80" viewBox="0 0 80 80" fill="none" xmlns="http://www.w3.org/2000/svg">
<path d="M59.1667 3.33328C50.293 3.33328 42.9639 11.5755 40 15.4655C37.0361 11.5755 29.707 3.33328 20.8333 3.33328C9.34578 3.33328 0 13.8948 0 26.875C0 33.9567 2.81094 40.5566 7.73109 45.0733C7.80266 45.197 7.89062 45.3109 7.99312 45.4134L38.8233 76.18C39.1488 76.5039 39.5736 76.6667 40 76.6667C40.4264 76.6667 40.8528 76.5039 41.1784 76.1784L73.0339 44.3344L73.3627 44.0153C73.6231 43.7695 73.8803 43.5205 74.1683 43.2016C74.2887 43.0828 74.388 42.9492 74.4645 42.8044C78.0372 38.4294 80 32.7864 80 26.875C80 13.8948 70.6544 3.33328 59.1667 3.33328ZM71.6911 40.9294C71.6455 40.9831 71.6031 41.04 71.5658 41.0986C71.4095 41.2777 71.2386 41.4355 71.0694 41.5967L39.9984 72.6449L10.7292 43.4342C10.6348 43.2486 10.503 43.0794 10.3419 42.9378C5.88703 39.0478 3.33328 33.1933 3.33328 26.875C3.33328 15.7323 11.1833 6.66672 20.8333 6.66672C30.3744 6.66672 38.5172 19.1114 38.5986 19.2367C39.2139 20.1872 40.7861 20.1872 41.4014 19.2367C41.4828 19.1114 49.6256 6.66672 59.1667 6.66672C68.8167 6.66672 76.6667 15.7325 76.6667 26.875C76.6667 32.1256 74.8991 37.1175 71.6911 40.9294Z" fill="#5556A1"/>
</svg>
