<svg width="80" height="80" viewBox="0 0 80 80" fill="none" xmlns="http://www.w3.org/2000/svg">
<path d="M40.0613 17.2433C28.7385 17.2433 19.4878 26.494 19.4878 37.8169C19.4878 43.7373 22.078 49.4357 26.4443 53.284C29.7006 56.5403 29.4045 63.4968 29.3305 63.5708C29.3305 63.9408 29.4045 64.2368 29.7006 64.5329C29.9226 64.7549 30.2926 64.9029 30.5886 64.9029H49.46C49.8301 64.9029 50.1261 64.7549 50.3481 64.5329C50.5701 64.3108 50.7181 63.9408 50.7181 63.5708C50.7181 63.4968 50.3481 56.5403 53.6044 53.284C53.6784 53.21 53.7524 53.136 53.8264 53.062C58.1187 49.1397 60.6349 43.5893 60.6349 37.8169C60.6349 26.494 51.3842 17.2433 40.0613 17.2433ZM51.9022 51.3599C51.8282 51.4339 51.6802 51.5819 51.6802 51.6559C48.794 54.7641 48.276 59.8705 48.2019 62.3127H31.8467C31.7727 59.8705 31.2547 54.5421 28.1464 51.3599C24.2241 47.9556 21.93 42.9972 21.93 37.7429C21.93 27.7521 29.9966 19.6855 39.9873 19.6855C49.9781 19.6855 58.0447 27.7521 58.0447 37.7429C58.0447 42.9972 55.8245 47.9556 51.9022 51.3599Z" fill="#5556A1"/>
<path d="M39.9871 22.4976C39.321 22.4976 38.729 23.0897 38.729 23.7557C38.729 24.4218 39.321 25.0138 39.9871 25.0138C47.4617 25.0138 53.4561 31.0823 53.4561 38.4828C53.4561 39.1489 54.0482 39.7409 54.7142 39.7409C55.3803 39.7409 55.9723 39.1489 55.9723 38.4828C56.0463 29.6762 48.8678 22.4976 39.9871 22.4976Z" fill="#5556A1"/>
<path d="M48.2015 66.309H31.7723C30.0702 66.309 28.6641 67.7151 28.6641 69.4173C28.6641 71.1194 30.0702 72.5255 31.7723 72.5255H48.1275C49.9037 72.4515 51.3098 71.1194 51.3098 69.4173C51.3098 67.7151 49.9037 66.309 48.2015 66.309ZM48.2015 69.9353H31.7723C31.4763 69.9353 31.1803 69.7133 31.1803 69.3432C31.1803 68.9732 31.4023 68.7512 31.7723 68.7512H48.1275C48.4236 68.7512 48.7196 68.9732 48.7196 69.3432C48.7196 69.7133 48.4976 69.9353 48.2015 69.9353Z" fill="#5556A1"/>
<path d="M45.7595 73.7835H34.2147C32.5126 73.7835 31.1064 75.1896 31.1064 76.8917C31.1064 78.5939 32.5126 80 34.2147 80H45.7595C47.4617 80 48.8678 78.5939 48.8678 76.8917C48.8678 75.1156 47.4617 73.7835 45.7595 73.7835ZM45.7595 77.4098H34.2147C33.9187 77.4098 33.6226 77.1878 33.6226 76.8177C33.6226 76.4477 33.8447 76.2257 34.2147 76.2257H45.7595C46.0556 76.2257 46.3516 76.4477 46.3516 76.8177C46.3516 77.1878 46.0556 77.4098 45.7595 77.4098Z" fill="#5556A1"/>
<path d="M39.9871 11.1008C40.7272 11.1008 41.2452 10.5088 41.2452 9.84274V1.25809C41.2452 0.592045 40.6531 0 39.9871 0C39.321 0 38.729 0.592045 38.729 1.25809V9.84274C38.729 10.5088 39.321 11.1008 39.9871 11.1008Z" fill="#5556A1"/>
<path d="M60.9306 6.36442C60.3385 5.92039 59.5985 6.1424 59.2284 6.66044L54.4921 13.765C54.048 14.357 54.196 15.1711 54.7881 15.5411C55.0101 15.6891 55.2321 15.7631 55.4541 15.7631C55.8982 15.7631 56.2682 15.5411 56.4902 15.1711L61.2266 8.06655C61.6706 7.54851 61.5226 6.73445 60.9306 6.36442Z" fill="#5556A1"/>
<path d="M24.9636 15.4671C25.1857 15.4671 25.4077 15.3931 25.6297 15.2451C26.2217 14.8751 26.3697 14.061 25.9997 13.469L21.4114 6.29042C21.0413 5.69838 20.2273 5.55037 19.6352 5.92039C19.0432 6.29042 18.8952 7.10448 19.2652 7.69653L23.8536 14.8751C24.1496 15.3191 24.5196 15.4671 24.9636 15.4671Z" fill="#5556A1"/>
<path d="M16.0092 23.3117L8.53468 19.2414C7.94264 18.9454 7.12857 19.1674 6.83255 19.7594C6.46252 20.3515 6.68454 21.1655 7.35059 21.4616L14.8252 25.5319C15.0472 25.6059 15.1952 25.6799 15.4172 25.6799C15.8612 25.6799 16.3053 25.4579 16.5273 25.0138C16.8233 24.4218 16.6013 23.6077 16.0092 23.3117Z" fill="#5556A1"/>
<path d="M73.2157 19.7594C72.9197 19.1674 72.1056 18.9454 71.5136 19.2414L63.965 23.3117C63.373 23.6077 63.1509 24.4218 63.447 25.0138C63.669 25.4579 64.113 25.6799 64.557 25.6799C64.7791 25.6799 65.0011 25.6059 65.1491 25.5319L72.6976 21.4616C73.2897 21.1655 73.5117 20.3515 73.2157 19.7594Z" fill="#5556A1"/>
</svg>
