<svg width="15" height="15" viewBox="0 0 15 15" fill="none" xmlns="http://www.w3.org/2000/svg">
<path d="M14.4383 2.25085C14.2957 1.86439 14.0682 1.51459 13.7725 1.22746C13.4854 0.931824 13.1358 0.7043 12.7491 0.561684C12.4355 0.43988 11.9644 0.294899 11.0966 0.255402C10.1579 0.212593 9.87646 0.203369 7.5 0.203369C5.1233 0.203369 4.84185 0.212357 3.90337 0.255165C3.03561 0.294899 2.56425 0.43988 2.25087 0.561684C1.86417 0.7043 1.51437 0.931824 1.22749 1.22746C0.931847 1.51459 0.704323 1.86415 0.56147 2.25085C0.439667 2.56446 0.294685 3.03583 0.255188 3.90359C0.212379 4.84206 0.203156 5.12351 0.203156 7.50021C0.203156 9.87668 0.212379 10.1581 0.255188 11.0968C0.294685 11.9646 0.439667 12.4357 0.56147 12.7493C0.704323 13.136 0.93161 13.4856 1.22725 13.7727C1.51437 14.0684 1.86394 14.2959 2.25063 14.4385C2.56425 14.5605 3.03561 14.7055 3.90337 14.745C4.84185 14.7878 5.12306 14.7968 7.49976 14.7968C9.8767 14.7968 10.1581 14.7878 11.0964 14.745C11.9641 14.7055 12.4355 14.5605 12.7491 14.4385C13.5254 14.1391 14.1389 13.5256 14.4383 12.7493C14.5601 12.4357 14.7051 11.9646 14.7448 11.0968C14.7876 10.1581 14.7966 9.87668 14.7966 7.50021C14.7966 5.12351 14.7876 4.84206 14.7448 3.90359C14.7053 3.03583 14.5603 2.56446 14.4383 2.25085ZM7.5 12.0703C4.97572 12.0703 2.92942 10.0243 2.92942 7.49998C2.92942 4.97569 4.97572 2.92963 7.5 2.92963C10.024 2.92963 12.0703 4.97569 12.0703 7.49998C12.0703 10.0243 10.024 12.0703 7.5 12.0703ZM12.251 3.81702C11.6612 3.81702 11.183 3.3388 11.183 2.74894C11.183 2.15908 11.6612 1.68085 12.251 1.68085C12.8409 1.68085 13.3191 2.15908 13.3191 2.74894C13.3189 3.3388 12.8409 3.81702 12.251 3.81702Z" fill="#718096"/>
</svg>
