<svg width="80" height="80" viewBox="0 0 80 80" fill="none" xmlns="http://www.w3.org/2000/svg">
<path d="M23.9172 44.6392C23.6266 44.3486 23.2234 44.1814 22.8125 44.1814C22.4 44.1814 21.9984 44.3486 21.7078 44.6392C21.4172 44.9298 21.25 45.3314 21.25 45.7439C21.25 46.1548 21.4172 46.5579 21.7078 46.8486C21.9984 47.1392 22.4016 47.3064 22.8125 47.3064C23.2234 47.3064 23.6266 47.1392 23.9172 46.8486C24.2078 46.5579 24.375 46.1548 24.375 45.7439C24.375 45.3314 24.2078 44.9298 23.9172 44.6392Z" fill="#5556A1"/>
<path d="M80 46.0942C80 42.5826 77.468 39.6531 74.1344 39.0306C74.9833 37.8506 75.4852 36.4052 75.4852 34.8439C75.4852 30.8808 72.261 27.6564 68.2977 27.6564H50.6582L53.2606 19.9301C54.2648 16.9485 54.0248 13.766 52.5848 10.9688C51.145 8.17167 48.6943 6.12715 45.6842 5.21215L42.64 4.28668C41.8447 4.04481 40.9991 4.46809 40.7162 5.24996L35.9328 18.4704C34.561 22.2619 31.8553 25.4121 28.3141 27.3403L23.4012 30.0156C22.4129 28.5914 20.7671 27.6564 18.9062 27.6564H5.46873C2.45327 27.6564 0 30.1097 0 33.1252V70.3122C0 73.3277 2.45327 75.7809 5.46873 75.7809H18.9062C20.971 75.7809 22.7718 74.6303 23.7023 72.9369L26.2897 73.9517C29.3854 75.1658 32.6408 75.7812 35.9658 75.7812H64.3752C68.3383 75.7812 71.5627 72.557 71.5627 68.5938C71.5627 67.0227 71.0546 65.5688 70.196 64.3847C73.4674 63.7129 75.9353 60.8111 75.9353 57.344C75.9353 55.746 75.4106 54.2687 74.5252 53.0738C77.6638 52.3035 80 49.4673 80 46.0942ZM72.8125 50.1567H56.8751C56.0121 50.1567 55.3126 50.8562 55.3126 51.7192C55.3126 52.5821 56.0121 53.2817 56.8751 53.2817H68.7477C70.9877 53.2817 72.8102 55.104 72.8102 57.3441C72.8102 59.5843 70.9877 61.4066 68.7477 61.4066H56.8751C56.0121 61.4066 55.3126 62.1061 55.3126 62.9691C55.3126 63.8321 56.0121 64.5316 56.8751 64.5316H64.3751C66.6151 64.5316 68.4375 66.3541 68.4375 68.5941C68.4375 70.8341 66.6151 72.6566 64.3751 72.6566H35.9658C33.0328 72.6566 30.1613 72.1136 27.4307 71.0427L24.3749 69.8439V50.9765C24.3749 50.1135 23.6754 49.414 22.8124 49.414C21.9494 49.414 21.2499 50.1135 21.2499 50.9765V70.3122C21.2499 71.6045 20.1985 72.656 18.9062 72.656H5.46873C4.17639 72.656 3.12499 71.6045 3.12499 70.3122V33.1252C3.12499 31.8328 4.17639 30.7814 5.46873 30.7814H6.24998V49.5156C6.24998 50.3785 6.9495 51.0781 7.81247 51.0781C8.67544 51.0781 9.37496 50.3785 9.37496 49.5156V30.7814H18.9062C20.1985 30.7814 21.2499 31.8328 21.2499 33.1252V39.3362C21.2499 40.1992 21.9494 40.8987 22.8124 40.8987C23.6754 40.8987 24.3749 40.1992 24.3749 39.3362V33.1252C24.3749 33.0981 24.3732 33.0716 24.3729 33.0447L29.8086 30.0847C34.0211 27.791 37.2397 24.0438 38.8714 19.5335L43.1501 7.70792L44.7753 8.20198C46.9698 8.86917 48.7565 10.3598 49.8064 12.3992C50.8562 14.4385 51.0312 16.7588 50.299 18.9326L47.0023 28.7202C46.8417 29.1969 46.9206 29.7219 47.214 30.1305C47.5075 30.5391 47.98 30.7814 48.4831 30.7814H68.2977C70.5377 30.7814 72.3602 32.6039 72.3602 34.8439C72.3602 37.0839 70.5377 38.9064 68.2977 38.9064H56.8751C56.0121 38.9064 55.3126 39.6059 55.3126 40.4689C55.3126 41.3319 56.0121 42.0314 56.8751 42.0314H62.6802C62.6827 42.0314 62.6852 42.0317 62.6877 42.0317H72.8125C75.0525 42.0317 76.875 43.8542 76.875 46.0942C76.875 48.3342 75.0525 50.1567 72.8125 50.1567Z" fill="#5556A1"/>
<path d="M12.1875 59.3882C9.6028 59.3882 7.5 61.491 7.5 64.0757C7.5 66.6604 9.6028 68.7632 12.1875 68.7632C14.7722 68.7632 16.875 66.6604 16.875 64.0757C16.875 61.491 14.7722 59.3882 12.1875 59.3882ZM12.1875 65.6382C11.3259 65.6382 10.625 64.9373 10.625 64.0757C10.625 63.2142 11.3259 62.5132 12.1875 62.5132C13.049 62.5132 13.75 63.2142 13.75 64.0757C13.75 64.9373 13.049 65.6382 12.1875 65.6382Z" fill="#5556A1"/>
<path d="M7.81249 53.5719C6.94953 53.5719 6.25 54.2714 6.25 55.1344V55.1588C6.25 56.0217 6.94953 56.7213 7.81249 56.7213C8.67546 56.7213 9.37499 56.0217 9.37499 55.1588V55.1344C9.37499 54.2714 8.67546 53.5719 7.81249 53.5719Z" fill="#5556A1"/>
</svg>
