<svg width="80" height="80" viewBox="0 0 80 80" fill="none" xmlns="http://www.w3.org/2000/svg">
<path d="M24.6714 29.048C24.1688 28.6403 23.431 28.7172 23.0231 29.22C22.5497 29.8037 21.922 30.1252 21.2555 30.1252C20.5889 30.1252 19.9612 29.8036 19.4878 29.22C19.0802 28.7173 18.342 28.6405 17.8395 29.048C17.3369 29.4556 17.2598 30.1936 17.6675 30.6962C18.5811 31.8228 19.8889 32.4689 21.2555 32.4689C22.622 32.4689 23.9297 31.8228 24.8435 30.6962C25.2511 30.1936 25.1741 29.4556 24.6714 29.048Z" fill="black"/>
<path d="M15.8999 22.0916C15.2527 22.0916 14.728 22.6163 14.728 23.2635V24.6024C14.728 25.2496 15.2527 25.7743 15.8999 25.7743C16.5471 25.7743 17.0718 25.2496 17.0718 24.6024V23.2635C17.0718 22.6163 16.5471 22.0916 15.8999 22.0916Z" fill="black"/>
<path d="M26.6113 22.0916C25.9641 22.0916 25.4395 22.6163 25.4395 23.2635V24.6024C25.4395 25.2496 25.964 25.7743 26.6113 25.7743C27.2585 25.7743 27.7832 25.2496 27.7832 24.6024V23.2635C27.7832 22.6163 27.2585 22.0916 26.6113 22.0916Z" fill="black"/>
<path d="M63.4999 35.7425C62.9973 35.3348 62.2593 35.4117 61.8517 35.9145C61.3782 36.4981 60.7504 36.8197 60.084 36.8197C59.4174 36.8197 58.7898 36.4981 58.3163 35.9145C57.9088 35.4119 57.1707 35.3348 56.668 35.7425C56.1654 36.1501 56.0885 36.8881 56.4962 37.3908C57.4096 38.5175 58.7174 39.1634 60.084 39.1634C61.4506 39.1634 62.7582 38.5173 63.6718 37.3908C64.0795 36.8881 64.0026 36.1501 63.4999 35.7425Z" fill="black"/>
<path d="M54.7285 28.7863C54.0813 28.7863 53.5566 29.311 53.5566 29.9582V31.2971C53.5566 31.9443 54.0813 32.469 54.7285 32.469C55.3757 32.469 55.9004 31.9443 55.9004 31.2971V29.9582C55.9004 29.311 55.3757 28.7863 54.7285 28.7863Z" fill="black"/>
<path d="M65.4395 28.7863C64.7923 28.7863 64.2676 29.311 64.2676 29.9582V31.2971C64.2676 31.9443 64.7921 32.469 65.4395 32.469C66.0866 32.469 66.6113 31.9443 66.6113 31.2971V29.9582C66.6113 29.311 66.0866 28.7863 65.4395 28.7863Z" fill="black"/>
<path d="M76.7389 51.9605L67.558 48.2881C67.5084 48.2682 67.4624 48.2429 67.4159 48.2186C73.757 46.7757 76.7601 44.3629 76.8934 44.2537C77.2104 43.9938 77.3687 43.5873 77.3108 43.1815C77.2975 43.0887 75.9836 33.7854 75.9836 24.6026C75.9836 15.8354 68.8509 8.70271 60.0836 8.70271C51.3164 8.70271 44.1838 15.8352 44.1838 24.6026C44.1838 27.0048 44.0748 29.943 43.8973 32.7244L41.339 34.0036L33.8296 30.2491C33.808 30.2383 33.7854 30.2305 33.7633 30.2211C34.1205 29.18 34.3541 28.0822 34.4399 26.943C36.0107 26.4577 37.1552 24.9919 37.1552 23.2637C37.1552 22.0998 36.6352 21.0557 35.8163 20.3492V12.5523C35.8163 10.3983 34.728 8.38302 32.9433 7.17207C32.3386 4.92518 30.3199 3.34689 27.9499 3.34689H17.2385C11.4244 3.34689 6.69426 8.07708 6.69426 13.8912V20.349C5.87535 21.0554 5.35534 22.0997 5.35534 23.2636C5.35534 24.9917 6.49988 26.4575 8.07067 26.9428C8.36661 30.8771 10.3941 34.3338 13.3888 36.5585V39.7976L3.69752 42.7049C1.48595 43.3685 0 45.3656 0 47.6747V60.753C0 61.4002 0.524691 61.9249 1.17188 61.9249H1.33891V75.4811C1.33891 76.1283 1.8636 76.6529 2.5108 76.6529C3.15799 76.6529 3.68268 76.1283 3.68268 75.4811V61.9249H8.03348V75.4811C8.03348 76.1283 8.55818 76.6529 9.20537 76.6529C9.85256 76.6529 10.3772 76.1283 10.3772 75.4811V55.2747C10.3772 54.2469 10.0758 53.2516 9.50584 52.3966L7.5027 49.3918C7.14363 48.8533 6.41598 48.7079 5.87769 49.0667C5.33909 49.4256 5.19362 50.1533 5.55269 50.6919L7.55582 53.6967C7.86833 54.1655 8.03364 54.7111 8.03364 55.2747V59.5811H2.5108H2.34376V47.6747C2.34376 46.4086 3.15846 45.3137 4.37128 44.9498L8.39427 43.7429C9.79521 49.6089 15.1157 53.8914 21.2556 53.8914C23.4614 53.8914 25.6036 53.3475 27.5219 52.3125C28.223 53.2689 29.3538 53.8914 30.6278 53.8914H30.7949V54.0584C30.7949 57.9871 32.9561 61.4183 36.1505 63.2322V65.1437C36.1505 65.2155 36.1046 65.2793 36.0363 65.3021L31.6649 66.7593C29.5428 67.4666 28.117 69.4448 28.117 71.6817V75.4811C28.117 76.1283 28.6417 76.6529 29.2889 76.6529C29.9361 76.6529 30.4608 76.1283 30.4608 75.4811V71.6817C30.4608 70.4553 31.2425 69.3706 32.406 68.9829L33.6914 68.5543C35.3921 71.0906 38.2523 72.6364 41.339 72.6364C44.429 72.6364 47.2865 71.0915 48.9868 68.5545L50.272 68.9829C51.4355 69.3707 52.2172 70.4553 52.2172 71.6817V75.4811C52.2172 76.1283 52.7419 76.6529 53.3891 76.6529C54.0363 76.6529 54.5609 76.1283 54.5609 75.4811V71.6817C54.5609 69.4448 53.1352 67.4666 51.0131 66.7595L46.6417 65.3023C46.5734 65.2794 46.5275 65.2159 46.5275 65.1438V63.2324C48.9192 61.8743 50.7295 59.6093 51.4889 56.9072C53.7034 59.2244 56.7964 60.5863 60.0835 60.5863C65.2729 60.5863 69.8262 57.2317 71.3946 52.3475L75.8679 54.1367C76.9544 54.5713 77.6562 55.6081 77.6562 56.778V62.2591H77.4892H73.3054V60.7532C73.3054 60.106 72.7807 59.5813 72.1335 59.5813C71.4864 59.5813 70.9617 60.106 70.9617 60.7532V75.4812C70.9617 76.1284 71.4864 76.6531 72.1335 76.6531C72.7807 76.6531 73.3054 76.1284 73.3054 75.4812V64.6029H76.3173V75.4812C76.3173 76.1284 76.842 76.6531 77.4892 76.6531C78.1364 76.6531 78.6611 76.1284 78.6611 75.4812V64.6029H78.8281C79.1389 64.6029 79.4369 64.4794 79.6567 64.2598C79.8766 64.0399 80 63.7419 80 63.431V56.778C80.0005 54.6439 78.7203 52.753 76.7389 51.9605ZM46.5278 24.6025C46.5278 17.1276 52.6091 11.0463 60.0839 11.0463C67.5588 11.0463 73.64 17.1276 73.64 24.6025C73.64 32.4718 74.5876 40.4266 74.8956 42.8024C73.8454 43.4895 71.1567 45.0026 66.6115 45.997V44.1321C67.234 43.7793 67.8299 43.3767 68.3902 42.9238C70.6962 41.0599 72.3257 38.4494 72.9782 35.5735C73.1957 34.6152 73.3061 33.6269 73.3061 32.6361C73.3061 26.0125 68.5159 25.0616 63.8833 24.1419C60.9357 23.5567 57.8877 22.9515 55.4605 21.0098C55.1088 20.7284 54.6269 20.6736 54.2208 20.8687C53.8147 21.0639 53.5566 21.4743 53.5566 21.925C53.5566 21.9561 53.5055 25.0395 49.0886 26.1437C48.4606 26.3008 48.0789 26.937 48.2359 27.565C48.3928 28.193 49.0292 28.5744 49.657 28.4177C53.3539 27.4934 54.862 25.4195 55.477 23.8614C58.0183 25.3673 60.865 25.9323 63.4269 26.4409C68.3784 27.4239 70.9623 28.1459 70.9623 32.6363C70.9623 33.4529 70.8715 34.2666 70.6926 35.055C70.1559 37.4198 68.8151 39.567 66.9168 41.1013C64.9637 42.6801 62.6008 43.5145 60.0839 43.5145C57.7896 43.5145 55.6059 42.8107 53.7528 41.4809C53.0739 39.6279 51.9834 37.9326 50.5445 36.5357V31.2974C50.5445 30.8911 50.3342 30.5139 49.9887 30.3005C49.6433 30.0871 49.212 30.0675 48.8486 30.2492L46.3184 31.5142C46.4571 29.0738 46.5278 26.7534 46.5278 24.6025ZM48.2007 33.1932V37.4343L43.9595 35.3138L48.2007 33.1932ZM34.4775 33.1932L38.7187 35.3138L34.4775 37.4343V33.1932ZM28.117 46.025V47.1379C27.278 47.8625 26.7781 48.9228 26.7781 50.0415C25.1091 51.0276 23.2129 51.5476 21.2554 51.5476C16.1579 51.5476 11.7477 47.9604 10.6444 43.0679L13.5396 42.1993C14.2538 45.8068 17.4415 48.5358 21.2556 48.5358C24.2842 48.5358 26.9167 46.8143 28.2308 44.2995C28.1556 44.8685 28.117 45.4448 28.117 46.025ZM15.7329 40.6674V37.9529C17.4145 38.7294 19.2851 39.1634 21.2556 39.1634C23.2259 39.1634 25.0967 38.7293 26.7783 37.953V40.6691C26.7783 43.7143 24.3009 46.1918 21.2556 46.1918C18.2154 46.1918 15.7415 43.7224 15.7332 40.6841C15.7332 40.6785 15.7329 40.6729 15.7329 40.6674ZM21.2556 36.8196C15.2571 36.8196 10.3772 31.9397 10.3772 25.9414C10.3772 25.2942 9.85256 24.7695 9.20537 24.7695C8.37505 24.7695 7.69942 24.0939 7.69942 23.2636C7.69942 22.4333 8.37489 21.7576 9.20537 21.7576H11.8832C12.3876 21.7576 12.8354 21.435 12.9949 20.9564L14.0706 17.7295C16.7635 17.6687 25.1119 17.2901 29.813 14.9395C30.3919 14.6499 30.6266 13.9462 30.3371 13.3673C30.0477 12.7884 29.3439 12.5537 28.7649 12.8432C23.7209 15.3651 13.3262 15.3973 13.2218 15.3973C12.7174 15.3974 12.2696 15.7201 12.1102 16.1987L11.0385 19.414H9.20537C9.14943 19.414 9.0938 19.4159 9.03833 19.4182V13.8912C9.03833 9.36943 12.7171 5.69066 17.2389 5.69066H27.9502C29.3495 5.69066 30.5252 6.69926 30.746 8.08864C30.8021 8.44177 31.0163 8.74989 31.3277 8.92552C32.6508 9.67177 33.4729 11.0613 33.4729 12.5521V19.4179C33.4174 19.4154 33.3619 19.4137 33.3058 19.4137H31.9669C31.3197 19.4137 30.795 19.9384 30.795 20.5856C30.795 21.2328 31.3197 21.7575 31.9669 21.7575H33.3058C34.1361 21.7575 34.8118 22.4329 34.8118 23.2634C34.8118 24.0939 34.1363 24.7694 33.3058 24.7694C32.6586 24.7694 32.1339 25.2941 32.1339 25.9412C32.1339 31.9396 27.2541 36.8196 21.2556 36.8196ZM29.1219 40.6695V36.5585C30.2877 35.6924 31.3066 34.6404 32.1338 33.4447V36.5355C30.8214 37.8096 29.7985 39.3316 29.1136 40.9954C29.1181 40.8871 29.1219 40.7787 29.1219 40.6695ZM46.6484 67.7748C45.3582 69.3509 43.4201 70.2924 41.3391 70.2924C39.2607 70.2924 37.3213 69.3503 36.0307 67.7746L36.7776 67.5257C37.8044 67.1835 38.4944 66.2262 38.4944 65.1438V64.2098C39.4001 64.464 40.3535 64.6029 41.3393 64.6029C42.3251 64.6029 43.2785 64.464 44.1842 64.2098V65.1438C44.184 66.226 44.8739 67.1834 45.9009 67.5256L46.6484 67.7748ZM50.7117 51.5476C50.0645 51.5476 49.5398 52.0723 49.5398 52.7195V53.8847C49.5398 53.8948 49.5397 53.905 49.5398 53.9152V54.0584C49.5397 58.5802 45.8609 62.259 41.3391 62.259C36.8174 62.259 33.1388 58.5802 33.1388 54.0584V52.7195C33.1388 52.0723 32.6141 51.5476 31.9669 51.5476H30.628C29.7977 51.5476 29.122 50.8722 29.122 50.0417C29.122 49.5073 29.4049 49.0237 29.8785 48.7481C29.9842 48.6865 30.0763 48.6086 30.156 48.5204C33.0528 48.4365 42.4434 47.8914 48.6151 44.3646C49.177 44.0435 49.3723 43.3278 49.0512 42.7657C48.7301 42.2037 48.014 42.0085 47.4523 42.3296C42.0457 45.419 33.55 46.0376 30.461 46.1612V46.025C30.461 43.8454 31.121 41.7346 32.3169 39.9551C32.4105 40.1034 32.5357 40.2321 32.6897 40.3273C32.878 40.4435 33.0916 40.5023 33.3058 40.5023C33.4849 40.5023 33.6644 40.4612 33.8299 40.3785L41.3393 36.6238L48.8487 40.3785C49.0142 40.4612 49.1937 40.5023 49.3728 40.5023C49.5872 40.5023 49.8008 40.4435 49.9889 40.3273C50.1428 40.2321 50.268 40.1032 50.3615 39.9551C51.5575 41.7346 52.2175 43.8454 52.2175 46.025V47.7353C52.2175 48.1525 52.4392 48.5382 52.8 48.7481C53.2737 49.0239 53.5566 49.5073 53.5566 50.0417C53.5566 50.872 52.8809 51.5476 52.0506 51.5476H50.7117ZM60.0839 58.2422C56.8396 58.2422 53.8295 56.5905 52.0773 53.8908C54.1877 53.8763 55.9002 52.1555 55.9002 50.0419C55.9002 48.9231 55.4003 47.8626 54.5613 47.1381V46.0251C54.5613 45.5534 54.5358 45.0843 54.4859 44.6196C56.2236 45.4343 58.1208 45.8579 60.0839 45.8579C61.5129 45.8579 62.926 45.6212 64.2677 45.1737V46.8898C64.2677 48.4731 65.2176 49.8762 66.6876 50.4642L69.2146 51.475C68.0035 55.4794 64.3051 58.2422 60.0839 58.2422Z" fill="#5556A1"/>
<path d="M44.7549 55.8262C44.2523 55.4185 43.5143 55.4954 43.1066 55.9982C42.633 56.5819 42.0054 56.9034 41.339 56.9034C40.6726 56.9034 40.0447 56.5819 39.5713 55.9982C39.1636 55.4955 38.4255 55.4185 37.923 55.8262C37.4204 56.2338 37.3433 56.9718 37.751 57.4745C38.6647 58.6009 39.9724 59.2471 41.339 59.2471C42.7055 59.2471 44.0132 58.601 44.927 57.4746C45.3345 56.9719 45.2574 56.2338 44.7549 55.8262Z" fill="black"/>
<path d="M37.3438 52.5578C37.991 52.5578 38.5156 52.0331 38.5156 51.3859C38.5156 50.7387 37.991 50.2141 37.3438 50.2141C36.6965 50.2141 36.1719 50.7387 36.1719 51.3859C36.1719 52.0331 36.6965 52.5578 37.3438 52.5578Z" fill="black"/>
<path d="M45.3125 52.5578C45.9597 52.5578 46.4844 52.0331 46.4844 51.3859C46.4844 50.7387 45.9597 50.2141 45.3125 50.2141C44.6653 50.2141 44.1406 50.7387 44.1406 51.3859C44.1406 52.0331 44.6653 52.5578 45.3125 52.5578Z" fill="black"/>
</svg>
