<svg width="80" height="80" viewBox="0 0 80 80" fill="none" xmlns="http://www.w3.org/2000/svg">
<g clip-path="url(#clip0)">
<path d="M20.4332 44.0611L17.7222 43.5599C17.492 43.5174 17.277 43.3406 17.187 43.1261C19.2825 41.783 20.6753 39.4352 20.6753 36.7666V32.7821C20.6753 28.6188 17.2882 25.2319 13.1251 25.2319C8.96201 25.2319 5.57499 28.619 5.57499 32.7821V36.7666C5.57499 39.4346 6.96717 41.7821 9.06201 43.1253C9.02045 43.2247 8.95811 43.3135 8.87873 43.385C8.82045 43.4186 8.76358 43.4558 8.70873 43.4977C8.65155 43.5253 8.59155 43.5481 8.5267 43.5602L5.81686 44.0611C2.44625 44.6841 0 47.6239 0 51.0516V53.2062C0 54.0691 0.69953 54.7687 1.5625 54.7687H24.6875C25.5504 54.7687 26.25 54.0691 26.25 53.2062V51.0516C26.25 47.6239 23.8035 44.6841 20.4332 44.0611ZM13.125 28.3566C15.0658 28.3566 16.7187 29.6124 17.314 31.3543L15.8987 30.5227C15.2404 30.1361 14.3997 30.2815 13.9097 30.8663C12.954 32.0066 11.5526 32.6607 10.065 32.6607H8.70155C8.76592 30.2766 10.7254 28.3566 13.125 28.3566ZM8.69983 36.7663V35.7857H10.0648C12.0264 35.7857 13.8953 35.0852 15.3592 33.83L17.5501 35.1174V36.7663C17.5501 39.2064 15.565 41.1916 13.125 41.1916C10.685 41.1916 8.69983 39.2064 8.69983 36.7663ZM14.5401 44.8039L13.1254 46.5692L11.7092 44.8027C11.8167 44.6208 11.9087 44.4295 11.9853 44.2306C12.357 44.2872 12.7376 44.3167 13.125 44.3167C13.5118 44.3167 13.8918 44.2872 14.2633 44.2308C14.3401 44.43 14.4325 44.6217 14.5401 44.8039ZM3.12499 51.6437V51.0516C3.12499 49.1308 4.49593 47.483 6.38468 47.1338L9.09467 46.6328C9.11655 46.6288 9.13733 46.6224 9.15905 46.618L11.9065 50.045C12.2031 50.415 12.6517 50.6302 13.1258 50.6302C13.5998 50.6302 14.0484 50.4147 14.3448 50.0448L17.0909 46.6181C17.1122 46.6225 17.1325 46.6288 17.1539 46.6327L19.865 47.1339C21.7539 47.4831 23.1248 49.1308 23.1248 51.0517V51.6437H3.12499Z" fill="#5556A1"/>
<path d="M35.9569 17.8936C33.8621 16.5503 35.9154 17.9928 35.9569 17.8936V17.8936Z" fill="#5556A1"/>
<path d="M47.3281 18.8302L44.617 18.3289C44.3867 18.2863 44.1719 18.1098 44.0819 17.8952C46.1773 16.552 47.5701 14.2042 47.5701 11.5358V7.55112C47.5701 3.388 44.1831 0.000976562 40.02 0.000976562C35.8569 0.000976562 32.4699 3.388 32.4699 7.55112V7.81596V11.5358C32.4699 14.2038 33.862 16.5513 35.9569 17.8945C35.8667 18.1103 35.6524 18.2863 35.4214 18.3291L32.7116 18.8302C29.3413 19.4533 26.895 22.3934 26.895 25.8209V27.9756C26.895 28.8386 27.5945 29.5381 28.4575 29.5381H51.5825C52.4455 29.5381 53.145 28.8386 53.145 27.9756V25.8209C53.145 22.3934 50.6987 19.4533 47.3281 18.8302ZM40.02 3.12597C41.9608 3.12597 43.6137 4.38175 44.2091 6.12362L42.7937 5.29206C42.1356 4.9055 41.2947 5.05065 40.8047 5.63565C39.8491 6.77596 38.4477 7.43003 36.96 7.43003H35.5966C35.6609 5.04581 37.6205 3.12597 40.02 3.12597ZM35.5949 11.5358V10.555H36.9599C38.9214 10.555 40.7903 9.85455 42.2542 8.5994L44.4452 9.88674V11.5358C44.4452 13.9756 42.46 15.9609 40.02 15.9609C37.58 15.9611 35.5949 13.9759 35.5949 11.5358ZM41.4352 19.5733L40.0205 21.3386L38.6042 19.572C38.7117 19.3902 38.8038 19.1988 38.8805 19C39.2522 19.0566 39.6328 19.0861 40.02 19.0861C40.4069 19.0861 40.7869 19.0566 41.1583 19.0002C41.2352 19.1994 41.3275 19.3911 41.4352 19.5733ZM50.02 26.413H30.02V25.8208C30.02 23.8998 31.391 22.2522 33.2799 21.903L35.9895 21.4019C36.0114 21.3978 36.0323 21.3914 36.0541 21.387L38.8016 24.8142C39.0981 25.1842 39.5467 25.3995 40.0208 25.3994C40.4948 25.3992 40.9434 25.1841 41.24 24.8139L43.9859 21.3873C44.0072 21.3916 44.0277 21.398 44.0491 21.4019L46.7601 21.9031C48.6491 22.2522 50.02 23.9 50.02 25.8208V26.413Z" fill="#5556A1"/>
<path d="M47.3281 69.2923L44.617 68.7911C44.3869 68.7486 44.1719 68.572 44.0819 68.3573C46.1773 67.0142 47.5701 64.6664 47.5701 61.998V58.0133C47.5701 53.85 44.1831 50.4631 40.02 50.4631C35.8569 50.4631 32.4699 53.8502 32.4699 58.0133V61.998C32.4699 64.6659 33.862 67.0134 35.9569 68.3567C35.8666 68.5726 35.6525 68.7484 35.4214 68.7912L32.7116 69.2923C29.3413 69.9154 26.895 72.8556 26.895 76.2829V78.4375C26.895 79.3003 27.5945 80 28.4575 80H51.5825C52.4454 80 53.145 79.3003 53.145 78.4375V76.2829C53.1448 72.8553 50.6984 69.9153 47.3281 69.2923ZM40.0198 53.588C41.9606 53.588 43.6136 54.8438 44.2089 56.5856L42.7936 55.7542C42.1355 55.3673 41.2945 55.513 40.8045 56.0978C39.8489 57.2381 38.4475 57.892 36.9598 57.892H35.5964C35.6608 55.5075 37.6203 53.588 40.0198 53.588ZM35.5947 61.9978V61.017H36.9597C38.9213 61.017 40.7902 60.3167 42.2539 59.0614L44.445 60.3487V61.9978C44.445 64.4378 42.4598 66.423 40.0198 66.423C37.5798 66.423 35.5947 64.4376 35.5947 61.9978ZM41.435 70.0353L40.0203 71.8006L38.6041 70.034C38.7116 69.8522 38.8036 69.6608 38.8803 69.462C39.252 69.5186 39.6327 69.5481 40.0198 69.5481C40.4067 69.5481 40.7867 69.5186 41.1581 69.4622C41.235 69.6614 41.3273 69.8531 41.435 70.0353ZM50.0198 76.875H30.0199V76.2828C30.0199 74.362 31.3908 72.7142 33.2797 72.365L35.9894 71.8639C36.0113 71.8598 36.032 71.8534 36.0539 71.849L38.8016 75.2762C39.0981 75.6462 39.5467 75.8614 40.0208 75.8614C40.4948 75.8614 40.9434 75.6459 41.2398 75.2761L43.9859 71.8494C44.0072 71.8537 44.0275 71.86 44.0489 71.8639L46.76 72.3651C48.6489 72.7144 50.0198 74.362 50.0198 76.2829V76.875Z" fill="#5556A1"/>
<path d="M74.1831 44.0609L71.472 43.5597C71.2419 43.5172 71.0269 43.3405 70.9369 43.1259C73.0323 41.7828 74.4251 39.435 74.4251 36.7664V32.7819C74.4251 28.6186 71.0381 25.2318 66.875 25.2318C62.7119 25.2318 59.3248 28.6188 59.3248 32.7819V36.7664C59.3248 39.4344 60.717 41.7819 62.8119 43.1252C62.7217 43.3409 62.5075 43.517 62.2764 43.5598L59.5666 44.0608C56.1962 44.6839 53.75 47.624 53.75 51.0514V53.2061C53.75 54.0689 54.4495 54.7686 55.3125 54.7686H78.4375C79.3004 54.7686 80 54.0689 80 53.2061V51.0515C79.9998 47.6239 77.5534 44.6841 74.1831 44.0609ZM66.8748 28.3566C68.8156 28.3566 70.4686 29.6124 71.0639 31.3542L69.6486 30.5227C68.9905 30.1361 68.1495 30.2814 67.6595 30.8663C66.7039 32.0066 65.3025 32.6606 63.8148 32.6606H62.4514C62.5158 30.2766 64.4753 28.3566 66.8748 28.3566ZM62.4497 36.7663V35.7856H63.8147C65.7762 35.7856 67.6451 35.0852 69.109 33.83L71.3 35.1174V36.7663C71.3 39.2064 69.3148 41.1916 66.8748 41.1916C64.4348 41.1916 62.4497 39.2064 62.4497 36.7663ZM68.29 44.8039L66.8753 46.5692L65.459 44.8026C65.5665 44.6208 65.6586 44.4295 65.7351 44.2306C66.1069 44.2872 66.4875 44.3167 66.8748 44.3167C67.2617 44.3167 67.6417 44.2872 68.0131 44.2308C68.09 44.43 68.1823 44.6217 68.29 44.8039ZM56.8748 51.6437V51.0515C56.8748 49.1308 58.2458 47.483 60.1345 47.1337L62.8445 46.6328C62.8664 46.6287 62.8872 46.6223 62.9089 46.618L65.6564 50.045C65.953 50.415 66.4016 50.6301 66.8756 50.6301C67.3497 50.6301 67.7983 50.4147 68.0947 50.0448L70.8408 46.6181C70.862 46.6225 70.8823 46.6287 70.9037 46.6326L73.6148 47.1339C75.5037 47.4831 76.8747 49.1308 76.8747 51.0517V51.6437H56.8748Z" fill="#5556A1"/>
<path d="M64.7431 57.0399C64.0592 56.5137 63.0781 56.6417 62.552 57.3257L62.5157 57.3726C61.9859 58.0537 62.1087 59.0356 62.7898 59.5652C63.075 59.7871 63.4126 59.8943 63.7479 59.8943C64.2135 59.8943 64.6743 59.6871 64.9823 59.2912L65.0289 59.2309C65.555 58.547 65.427 57.566 64.7431 57.0399Z" fill="#5556A1"/>
<path d="M61.198 61.285C60.6216 60.6431 59.6336 60.5898 58.9916 61.1666C56.9631 62.988 54.6917 64.5052 52.2409 65.6758C51.4624 66.0476 51.1325 66.9805 51.5045 67.7592C51.7727 68.3206 52.3324 68.6484 52.9155 68.6484C53.1413 68.6484 53.3706 68.5994 53.5878 68.4955C56.3081 67.1962 58.8286 65.5125 61.0794 63.4916C61.7214 62.9152 61.7745 61.927 61.198 61.285Z" fill="#5556A1"/>
<path d="M27.6717 65.6339C23.4433 63.5965 19.7455 60.5065 16.978 56.6976C16.4708 55.9997 15.4938 55.8447 14.7955 56.352C14.0974 56.8592 13.9427 57.8364 14.45 58.5345C17.5202 62.76 21.6233 66.1884 26.3153 68.4492C26.5339 68.5545 26.765 68.6043 26.9923 68.6043C27.5737 68.6043 28.1319 68.2786 28.4011 67.7198C28.7756 66.9421 28.449 66.0086 27.6717 65.6339Z" fill="#5556A1"/>
<path d="M17.5838 20.0042C16.9871 19.5234 15.9969 19.4867 15.3724 20.258C14.748 21.0289 14.9899 21.99 15.5846 22.4736C15.8575 22.6956 16.2136 22.8242 16.58 22.8242C17.0117 22.8242 17.4574 22.6453 17.7971 22.2297C17.8 22.2261 17.803 22.2225 17.8058 22.2189C18.4267 21.4448 18.1803 20.485 17.5838 20.0042Z" fill="#5556A1"/>
<path d="M29.4706 11.8561C29.1262 11.0649 28.2051 10.7024 27.4143 11.047C24.7645 12.2003 22.2822 13.7161 20.0365 15.5517C19.3684 16.0978 19.2695 17.0822 19.8158 17.7503C20.1248 18.1284 20.5739 18.3241 21.0265 18.3241C21.3743 18.3241 21.7242 18.2084 22.0145 17.9712C24.0382 16.317 26.2747 14.9514 28.6615 13.9123C29.4528 13.568 29.815 12.6473 29.4706 11.8561Z" fill="#5556A1"/>
<path d="M65.8249 21.85C62.2149 16.7224 57.2279 12.8188 51.4035 10.561C50.5987 10.2491 49.6939 10.6486 49.382 11.4532C49.07 12.2579 49.4695 13.163 50.274 13.4749C55.5218 15.5089 60.0156 19.0272 63.2696 23.6491C63.5738 24.0813 64.0574 24.3122 64.5487 24.3122C64.8595 24.3122 65.1734 24.2197 65.4468 24.0272C66.1524 23.5305 66.3216 22.5556 65.8249 21.85Z" fill="#5556A1"/>
</g>
<defs>
<clipPath id="clip0">
<rect width="80" height="80" fill="white"/>
</clipPath>
</defs>
</svg>
