<svg width="14" height="20" viewBox="0 0 14 20" fill="none" xmlns="http://www.w3.org/2000/svg">
<path fill-rule="evenodd" clip-rule="evenodd" d="M7.00004 0.833374C3.45254 0.833374 0.583374 3.70254 0.583374 7.25004C0.583374 12.0625 7.00004 19.1667 7.00004 19.1667C7.00004 19.1667 13.4167 12.0625 13.4167 7.25004C13.4167 3.70254 10.5475 0.833374 7.00004 0.833374ZM2.41671 7.25004C2.41671 4.72004 4.47004 2.66671 7.00004 2.66671C9.53004 2.66671 11.5834 4.72004 11.5834 7.25004C11.5834 9.89004 8.94337 13.8409 7.00004 16.3067C5.09337 13.8592 2.41671 9.86254 2.41671 7.25004ZM4.70837 7.25004C4.70837 5.98439 5.73439 4.95837 7.00004 4.95837C7.81878 4.95837 8.57532 5.39516 8.98468 6.10421C9.39405 6.81325 9.39405 7.68683 8.98468 8.39587C8.57532 9.10492 7.81878 9.54171 7.00004 9.54171C5.73439 9.54171 4.70837 8.51569 4.70837 7.25004Z" fill="#979797"/>
</svg>
