<svg width="90" height="90" viewBox="0 0 90 90" fill="none" xmlns="http://www.w3.org/2000/svg">
<path d="M72.8613 33.1393H67.1951L68.9023 13.538C68.9055 13.5025 68.906 13.4675 68.9062 13.4326C68.9062 13.4296 68.9065 13.4268 68.9065 13.4238C68.9065 13.4233 68.9065 13.4229 68.9065 13.4224C68.9065 12.8889 68.5847 12.4187 68.1116 12.2142C68.1076 12.2125 68.1037 12.2104 68.0997 12.2086C68.0703 12.1963 68.0399 12.1857 68.0093 12.1756C67.9979 12.1719 67.987 12.1673 67.9756 12.1638C67.9506 12.1562 67.9249 12.1502 67.8995 12.1441C67.8815 12.1399 67.8643 12.1348 67.8462 12.1313C67.8239 12.1269 67.8007 12.124 67.7778 12.1207C67.7564 12.1175 67.7353 12.1139 67.7137 12.1119C67.71 12.1116 67.7066 12.1109 67.7029 12.1105C67.6797 12.1084 67.6569 12.1088 67.6339 12.1079C67.6184 12.1073 67.6033 12.1056 67.5878 12.1056H67.5713C67.5699 12.1056 67.5685 12.1056 67.5672 12.1056H40.6074C39.8796 12.1056 39.289 12.6962 39.289 13.424C39.289 14.1499 39.8796 14.7423 40.6074 14.7423H66.1508L63.5271 44.8669C63.5267 44.8692 63.5267 44.8715 63.5264 44.8738L62.8644 52.4748H17.054L17.8202 44.565H26.5427C27.271 44.565 27.8611 43.9747 27.8611 43.2466C27.8611 42.5185 27.271 41.9282 26.5427 41.9282H18.0758L19.6937 25.2298H33.5761C34.3044 25.2298 34.8945 24.6395 34.8945 23.9115C34.8945 23.1834 34.3044 22.5931 33.5761 22.5931H19.9493L20.7101 14.7423H35.3339C36.0599 14.7423 36.6523 14.1499 36.6523 13.424C36.6523 12.6962 36.0599 12.1056 35.3339 12.1056H19.5136C19.5128 12.1056 19.5123 12.1058 19.5116 12.1058C18.8923 12.1056 18.3552 12.5415 18.2252 13.1459C18.2244 13.1503 18.2228 13.1545 18.2219 13.1589C18.2152 13.1917 18.2108 13.2253 18.2064 13.2591C18.2052 13.2698 18.2029 13.28 18.2019 13.2907C18.2017 13.2928 18.2012 13.2948 18.201 13.2969L17.3003 22.5931H1.31836C0.5901 22.5931 0 23.1834 0 23.9115C0 24.6395 0.5901 25.2298 1.31836 25.2298H17.0447L15.4268 41.9282H10.723C9.99479 41.9282 9.40469 42.5185 9.40469 43.2466C9.40469 43.9747 9.99479 44.565 10.723 44.565H15.1714L14.2904 53.6566C14.2902 53.658 14.2902 53.6594 14.29 53.6606L12.9279 67.7195C12.9277 67.7211 12.9275 67.7228 12.9274 67.7242L12.9268 67.7293C12.9251 67.7476 12.9252 67.7655 12.9242 67.7838C12.923 67.8081 12.9205 67.8318 12.9205 67.8564C12.9205 67.8575 12.9207 67.8585 12.9207 67.8598C12.9207 67.8937 12.9231 67.9271 12.9256 67.9605C12.9267 67.9712 12.9263 67.9821 12.9275 67.9926C12.931 68.0267 12.9368 68.0603 12.943 68.0937C12.9448 68.1036 12.9456 68.1136 12.9476 68.1233C12.9527 68.1486 12.9599 68.173 12.9666 68.1978C12.9711 68.2152 12.9748 68.2329 12.9801 68.25C12.9817 68.2547 12.9838 68.2593 12.9852 68.2642C13.049 68.4604 13.1573 68.6365 13.2986 68.7803C13.3012 68.783 13.3034 68.7859 13.306 68.7884C13.3201 68.8025 13.3353 68.8151 13.3501 68.8285C13.441 68.9118 13.5436 68.9825 13.656 69.0378C13.6793 69.0494 13.7024 69.0616 13.7263 69.0716C13.7335 69.0748 13.7412 69.0769 13.7486 69.0797C13.7817 69.0929 13.8149 69.1055 13.8492 69.1162C13.8523 69.1171 13.8553 69.1176 13.8585 69.1187C13.8975 69.1303 13.9369 69.1405 13.9771 69.1488C13.9824 69.1498 13.9878 69.1502 13.9929 69.1512C14.0313 69.1584 14.0698 69.1646 14.109 69.1684C14.1098 69.1684 14.1105 69.1686 14.1114 69.1688C14.1547 69.173 14.1976 69.1751 14.2401 69.1751C14.2406 69.1751 14.2413 69.175 14.242 69.175H20.111C20.7591 74.0886 24.9718 77.8943 30.0598 77.8943C35.1474 77.8943 39.36 74.0886 40.0081 69.175H61.1545C61.8028 74.0886 66.0153 77.8943 71.1031 77.8943C76.1908 77.8943 80.4037 74.0886 81.052 69.175H86.9224C86.9233 69.175 86.9243 69.1751 86.9252 69.1751C86.9692 69.1751 87.0124 69.1725 87.0553 69.1683C87.063 69.1676 87.0704 69.166 87.0782 69.1651C87.1124 69.1611 87.1465 69.1563 87.1799 69.1496C87.1943 69.1468 87.2082 69.143 87.2225 69.1396C87.2483 69.1336 87.2743 69.1273 87.2996 69.1198C87.3169 69.1147 87.3336 69.1087 87.3504 69.1029C87.3721 69.0955 87.3937 69.0878 87.4149 69.0792C87.4332 69.0719 87.4506 69.064 87.4684 69.0561C87.4877 69.0472 87.5071 69.038 87.5259 69.0284C87.5438 69.0192 87.561 69.0097 87.5783 68.9999C87.5964 68.9893 87.6143 68.9784 87.632 68.9672C87.6486 68.9566 87.6651 68.9459 87.6809 68.9347C87.6988 68.9222 87.7159 68.909 87.7333 68.8956C87.7477 68.8842 87.7623 68.873 87.7764 68.861C87.7945 68.8457 87.8115 68.8297 87.8287 68.8134C87.8407 68.8019 87.8532 68.7907 87.8648 68.7787C87.8831 68.7601 87.9005 68.7404 87.9179 68.7206C87.9272 68.7098 87.9369 68.6995 87.9458 68.6886C87.9651 68.6647 87.9827 68.64 88.0003 68.6153C88.0063 68.6066 88.013 68.5986 88.0188 68.5898C88.0402 68.5576 88.0604 68.5246 88.0791 68.4905C88.0805 68.4883 88.0819 68.4864 88.0827 68.4841C88.1026 68.4476 88.1209 68.4101 88.1372 68.3715C88.1418 68.3604 88.1453 68.349 88.1497 68.3379C88.1604 68.3106 88.171 68.2834 88.18 68.2551C88.1858 68.2368 88.19 68.218 88.1951 68.1995C88.2009 68.1776 88.207 68.1558 88.2119 68.1334C88.2163 68.1136 88.2191 68.0932 88.2225 68.073C88.2255 68.0552 88.2293 68.0378 88.2316 68.0197C88.2875 67.5718 89.3199 59.2892 89.781 53.9334C89.7815 53.9283 89.7817 53.9231 89.7822 53.918C89.9149 52.3741 90 51.074 90 50.278C90 40.8278 82.3116 33.1393 72.8613 33.1393ZM66.9654 35.7764H72.3589L71.67 43.6859H66.2765L66.9654 35.7764ZM30.0601 75.2574C25.979 75.2574 22.6588 71.9372 22.6588 67.8562C22.6588 63.7753 25.9792 60.4551 30.0601 60.4551C34.1411 60.4551 37.4612 63.7753 37.4612 67.8562C37.4612 71.9372 34.1411 75.2574 30.0601 75.2574ZM71.1031 75.2574C67.0221 75.2574 63.7021 71.9372 63.7021 67.8562C63.7021 63.7753 67.0223 60.4551 71.1031 60.4551C75.1842 60.4551 78.5044 63.7753 78.5044 67.8562C78.5044 71.9372 75.1842 75.2574 71.1031 75.2574ZM85.7575 66.5373H81.0523C80.4044 61.6234 76.1916 57.8175 71.1034 57.8175C66.0156 57.8175 61.8028 61.6235 61.1549 66.5373H40.0087C39.3607 61.6234 35.1481 57.8175 30.0601 57.8175C24.9721 57.8175 20.7591 61.6235 20.1112 66.5373H15.6913L16.7986 55.1108H64.0725V55.1115C64.0732 55.1115 64.0737 55.1115 64.0744 55.1115C64.1186 55.1115 64.1623 55.1091 64.2056 55.1047C64.2137 55.104 64.2216 55.1022 64.2297 55.1012C64.2641 55.0971 64.2984 55.0922 64.3321 55.0855C64.3467 55.0825 64.361 55.0785 64.3754 55.075C64.4018 55.0686 64.4281 55.0625 64.4538 55.0547C64.4714 55.0495 64.4881 55.0431 64.5051 55.0372C64.5273 55.0294 64.5494 55.0219 64.5709 55.0131C64.5893 55.0055 64.6071 54.9971 64.625 54.9886C64.6445 54.9797 64.664 54.9707 64.6828 54.9609C64.7008 54.9514 64.7183 54.9412 64.7361 54.931C64.7542 54.9204 64.7721 54.9097 64.7897 54.8985C64.8068 54.8874 64.8229 54.8758 64.8393 54.8642C64.8567 54.8519 64.8736 54.8392 64.8904 54.826C64.9055 54.8139 64.9205 54.8014 64.9352 54.7886C64.952 54.7742 64.9683 54.7594 64.9841 54.7441C64.9975 54.7313 65.0108 54.7181 65.0238 54.7046C65.0397 54.6881 65.055 54.671 65.0701 54.6536C65.0819 54.6399 65.0935 54.6262 65.1047 54.6121C65.1193 54.5937 65.1332 54.5747 65.1469 54.5555C65.1573 54.5411 65.1673 54.5267 65.1771 54.5119C65.19 54.4921 65.2023 54.4717 65.214 54.4509C65.223 54.4355 65.2321 54.42 65.2402 54.4042C65.2513 54.3834 65.2608 54.3623 65.2708 54.3411C65.2785 54.324 65.2865 54.3073 65.2935 54.2897C65.3021 54.269 65.3093 54.2477 65.3169 54.2265C65.3234 54.2076 65.3302 54.1888 65.336 54.1695C65.3418 54.1491 65.3466 54.1282 65.3519 54.1075C65.357 54.0865 65.3626 54.0658 65.3666 54.0445C65.3707 54.0238 65.3731 54.0027 65.3763 53.9816C65.3795 53.9598 65.3831 53.9383 65.3853 53.9162C65.3856 53.913 65.3863 53.91 65.3865 53.9069L66.0472 46.3219H72.8609C76.9002 46.3219 78.722 48.4148 80.6505 50.6307C82.2419 52.459 84.0185 54.4989 87.0384 54.9966C86.6549 59.0518 86.0349 64.2578 85.7575 66.5373ZM87.2638 52.3546C85.3047 51.9552 84.0993 50.5779 82.6391 48.9003C80.8129 46.8023 78.5835 44.242 74.3097 43.765L74.9917 35.9342C81.9815 36.968 87.3633 43.0058 87.3633 50.2784C87.3633 50.7725 87.3264 51.4904 87.2638 52.3546Z" fill="#DEB89E"/>
<path d="M30.0599 63.0221C27.3946 63.0221 25.226 65.1905 25.226 67.8561C25.226 70.5217 27.3946 72.6901 30.0599 72.6901C32.7253 72.6901 34.8939 70.5217 34.8939 67.8561C34.8939 65.1907 32.7253 63.0221 30.0599 63.0221ZM30.0599 70.0534C28.8483 70.0534 27.8627 69.0678 27.8627 67.8561C27.8627 66.6444 28.8483 65.6588 30.0599 65.6588C31.2716 65.6588 32.2572 66.6444 32.2572 67.8561C32.2572 69.0678 31.2714 70.0534 30.0599 70.0534Z" fill="#DEB89E"/>
<path d="M71.1031 63.0221C68.4377 63.0221 66.2691 65.1905 66.2691 67.8561C66.2691 70.5217 68.4377 72.6901 71.1031 72.6901C73.7684 72.6901 75.937 70.5217 75.937 67.8561C75.937 65.1907 73.7684 63.0221 71.1031 63.0221ZM71.1031 70.0534C69.8914 70.0534 68.9058 69.0678 68.9058 67.8561C68.9058 66.6444 69.8914 65.6588 71.1031 65.6588C72.3147 65.6588 73.3003 66.6444 73.3003 67.8561C73.3003 69.0678 72.3147 70.0534 71.1031 70.0534Z" fill="#DEB89E"/>
<path d="M12.4804 33.1397H6.03525C5.30699 33.1397 4.71689 33.73 4.71689 34.458C4.71689 35.1861 5.30699 35.7764 6.03525 35.7764H12.4804C13.2087 35.7764 13.7988 35.1861 13.7988 34.458C13.7988 33.73 13.2087 33.1397 12.4804 33.1397Z" fill="#DEB89E"/>
</svg>
