<svg width="31" height="27" viewBox="0 0 31 27" fill="none" xmlns="http://www.w3.org/2000/svg">
<path d="M30.0862 4.08374C29.9333 4.12839 29.7805 4.16995 29.6277 4.20867C28.6935 4.44455 28.6076 4.13329 29.284 3.44656C29.5869 3.13883 29.8545 2.80414 30.0869 2.44264C30.6079 1.63201 30.156 1.2785 29.2697 1.65716C28.9535 1.79223 28.6321 1.91471 28.3062 2.0239C27.393 2.3306 26.097 1.86795 25.2832 1.35182C24.2559 0.700331 23.0883 0.374756 21.7801 0.374756C19.9477 0.374756 18.3859 1.021 17.0937 2.31247C15.8019 3.60462 15.1556 5.16692 15.1556 6.99886C15.1556 7.2494 15.1699 7.50376 15.1982 7.76165C15.2446 8.18142 14.5377 8.48573 13.5836 8.351C11.5199 8.05963 9.55915 7.43431 7.70098 6.47572C5.85814 5.52517 4.23169 4.32898 2.82191 2.8871C2.14801 2.19797 1.23657 2.25733 0.984951 3.18759C0.834195 3.74522 0.759216 4.32516 0.759216 4.9275C0.759216 6.06262 1.02578 7.11541 1.55901 8.08586C1.82421 8.56881 2.13478 9.00602 2.49144 9.39723C3.09133 10.0557 2.99953 10.4378 2.16449 10.2037C1.3298 9.96958 0.718105 9.62199 0.718105 9.64468C0.718105 9.66738 0.718105 9.68585 0.718105 9.68585C0.718105 11.2851 1.22027 12.6903 2.22522 13.9001C2.84427 14.6455 3.56344 15.2212 4.38245 15.6268C5.24611 16.0546 5.64843 16.2932 5.16548 16.3557C4.87412 16.3934 4.58099 16.4122 4.28615 16.4122C4.08658 16.4122 3.87721 16.4031 3.65877 16.3847C3.3133 16.3553 3.25121 17.0752 3.77498 17.8841C4.19127 18.5269 4.72411 19.0925 5.3732 19.5811C6.03342 20.0784 6.74495 20.4353 7.50666 20.6527C8.4335 20.9169 8.61949 21.3981 7.79312 21.8936C5.74827 23.1206 3.48532 23.734 1.00462 23.734C0.725119 23.734 0.4585 23.7277 0.203799 23.7155C-0.238322 23.6942 0.0582881 24.0836 0.911797 24.5306C3.57883 25.9275 6.4671 26.6254 9.577 26.6254C11.9283 26.6254 14.1364 26.2531 16.2012 25.508C18.2652 24.763 20.0292 23.7647 21.492 22.5137C22.9548 21.2627 24.2163 19.8239 25.276 18.1968C26.3355 16.5696 27.1248 14.8709 27.6447 13.1007C28.1639 11.3301 28.4239 9.55602 28.4239 7.77847C28.4239 7.61831 28.4226 7.47451 28.4201 7.34787C28.4152 7.10988 29.0447 6.46568 29.7475 5.80655C30.0647 5.50892 30.3672 5.19657 30.6562 4.86894C31.2936 4.14549 31.0113 3.81399 30.0862 4.08374Z" fill="#718096"/>
</svg>
